
	<svg xmlns="http://www.w3.org/2000/svg" xmlns:xlink="http://www.w3.org/1999/xlink" version="1.1" width="512" height="512" viewBox="0 0 100 100">

		<defs>
			<g id="background">
<path fill="url(#background-gradient)" stroke="none" d=" M 85.35 85.35 Q 100 70.6 100 50 100 29.3 85.35 14.65 70.7 0 50 0 29.3 0 14.65 14.65 0 29.3 0 50 0 70.6 14.65 85.35 29.3 100 50 100 70.7 100 85.35 85.35 Z"/>
</g><g id="middle-1">
<path fill="#FFFFFF" fill-opacity="0.30196078431372547" stroke="none" d=" M 85.35 85.35 Q 100 70.6 100 50 100 29.3 85.35 14.65 70.7 0 50 0 29.3 0 14.65 14.65 0 29.3 0 50 0 70.6 14.65 85.35 29.3 100 50 100 70.7 100 85.35 85.35 M 50 7.05 Q 67.75 7.05 80.35 19.65 92.85 32.25 92.85 50 92.85 67.75 80.35 80.25 67.75 92.85 50 92.85 32.25 92.85 19.65 80.25 7.15 67.75 7.15 50 7.15 32.25 19.65 19.65 32.25 7.05 50 7.05 Z"/>
</g><mask id="mask">
<path fill="#FFFFFF" stroke="none" d=" M 85.35 85.35 Q 100 70.6 100 50 100 29.3 85.35 14.65 70.7 0 50 0 29.3 0 14.65 14.65 0 29.3 0 50 0 70.6 14.65 85.35 29.3 100 50 100 70.7 100 85.35 85.35 Z"/>
</mask>
			
	<linearGradient id="background-gradient" x1="0" y1="0" y2="1" x2="0" >
		<stop stop-color="#6f96e9" offset="0%"/>
		<stop stop-color="#6f96e9" offset="100%"/>
	</linearGradient>

			
			
			<g transform="translate(0 25)" id="picture"><path d="M95.03.196c-2.734 0-10.763 4.15-17.84 9.23l-6.944 4.98v-1.952C70.246 5.6 63.068 0 54.3 0H15.947C7.177 0 0 7.02 0 15.606V34.2c0 8.586 7.177 15.61 15.948 15.61h38.35c8.772 0 15.948-5.604 15.948-12.452v-1.565l6.945 4.98C84.27 45.85 92.298 50 95.03 50c2.733 0 4.97-7.02 4.97-15.607v-18.59C100 7.217 97.766.195 95.03.195z"/></g>
			
	<linearGradient id="picture-gradient" x1="0" y1="0" y2="1" x2="0" >
		<stop stop-color="#ffffff" offset="0%"/>
		<stop stop-color="#e5eff9" offset="100%"/>
	</linearGradient>

		</defs>

		

			<use xlink:href="#background" fill="url(#background-gradient)" />

		<use xlink:href="#middle-1" />

			<g mask="url(#mask)">
				<g transform="
				        translate(
                                50 50
)
                            translate(0 0)  scale(0.5)  
                            translate(
                                -50 -50
)">
						<use xlink:href="#picture" fill="url(#picture-gradient)"  />
				</g>
			</g>

		


	</svg>
